# xmcd CD database file
#
# Track frame offsets:
#	150
#	21992
#	43285
#	64670
#	86057
#	104104
#	126721
#	153127
#	169557
#	188321
#	211873
#	232892
#
# Disc length: 3362 seconds
#
# Revision: 1
# Processed by: cddbd v1.5PL3 Copyright (c) Steve Scherf et al.
# Submitted via: CDex 1.51
#
DISCID=9e0d200c
DTITLE=Lucinda Williams - World Without Tears
DYEAR=2003
DGENRE=Country
TTITLE0=Fruits of My Labor
TTITLE1=Righteously
TTITLE2=Ventura
TTITLE3=Bleeding Fingers
TTITLE4=Over Time
TTITLE5=Those Three Days
TTITLE6=Atonement
TTITLE7=Sweet Side
TTITLE8=Minneapolis
TTITLE9=People Talkin'
TTITLE10=America Dream
TTITLE11=World Without Tears
EXTD=YEAR: 2003
EXTT0=
EXTT1=
EXTT2=
EXTT3=
EXTT4=
EXTT5=
EXTT6=
EXTT7=
EXTT8=
EXTT9=
EXTT10=
EXTT11=
PLAYORDER=
